<svg xmlns="http://www.w3.org/2000/svg" viewBox="0 0 102.05 112.42"><defs><style>.cls-1{fill:#15b8d7;}.cls-2{fill:none;}</style></defs><g id="Capa_2" data-name="Capa 2"><g id="Capa_1-2" data-name="Capa 1"><path class="cls-1" d="M86.1,26.78H77.32A4.39,4.39,0,0,1,74,25.26a4.44,4.44,0,0,1-1-3.51l1.39-9.28A1,1,0,0,1,76.13,12L86.87,25.14a1,1,0,0,1-.77,1.64ZM76,15,75,22a2.38,2.38,0,0,0,2.36,2.74H84Z"/><path class="cls-1" d="M67.5,76.21H34.75a1,1,0,0,1,0-2H67.5a1,1,0,0,1,0,2Z"/><path class="cls-1" d="M51.12,63.64a1,1,0,0,1-.75-.35L40.44,51.77A1,1,0,0,1,42,50.46l8.17,9.48V33.47a1,1,0,0,1,2,0V62.64a1,1,0,0,1-.65.93A.84.84,0,0,1,51.12,63.64Z"/><path class="cls-1" d="M51.12,63.64a.91.91,0,0,1-.35-.07,1,1,0,0,1-.65-.93V33.47a1,1,0,0,1,2,0V59.94l8.17-9.48a1,1,0,0,1,1.42-.1,1,1,0,0,1,.1,1.41L51.88,63.29A1,1,0,0,1,51.12,63.64Z"/><path class="cls-2" d="M17.15,28.47V96.13a.69.69,0,0,0,.69.69H84.41a.69.69,0,0,0,.69-.69v-70L74.88,13.62h-57a.69.69,0,0,0-.69.69v8.11"/><path class="cls-1" d="M86.87,25.14,76.13,12a1,1,0,0,0-.77-.37H17.84a2.69,2.69,0,0,0-2.69,2.69v8.12a3,3,0,0,1,1-.18,3.33,3.33,0,0,1,1,.17V14.31a.69.69,0,0,1,.69-.69h57L85.1,26.13v70a.69.69,0,0,1-.69.69H17.84a.69.69,0,0,1-.69-.69V28.47a3.05,3.05,0,0,1-1,.18,3,3,0,0,1-1-.18V96.13a2.69,2.69,0,0,0,2.69,2.69H84.41a2.7,2.7,0,0,0,2.69-2.69V25.78A1,1,0,0,0,86.87,25.14Z"/><path class="cls-1" d="M15,25.45a1.12,1.12,0,0,0,.2.62V24.83A1.12,1.12,0,0,0,15,25.45Z"/><path class="cls-1" d="M17.35,25.45a1.2,1.2,0,0,0-.2-.62v1.24A1.2,1.2,0,0,0,17.35,25.45Z"/><path class="cls-1" d="M16.15,24.25a1.18,1.18,0,0,0-1,.58v1.24a1.18,1.18,0,0,0,1,.58,1.19,1.19,0,0,0,1-.58V24.83A1.19,1.19,0,0,0,16.15,24.25Z"/><rect class="cls-2" width="102.05" height="112.42"/></g></g></svg>