<svg xmlns="http://www.w3.org/2000/svg" viewBox="0 0 102.05 112.42"><defs><style>.cls-1{fill:none;}.cls-2{fill:#15b8d7;}</style></defs><g id="Capa_2" data-name="Capa 2"><g id="Capa_1-2" data-name="Capa 1"><rect class="cls-1" width="102.05" height="112.42"/><path class="cls-2" d="M11.82,55.24a37.16,37.16,0,1,0,73.57-7.35,15.71,15.71,0,0,1-1.79.61A35.28,35.28,0,1,1,49,20,35,35,0,0,1,64,23.35a17.23,17.23,0,0,1,1-1.58A37.14,37.14,0,0,0,11.82,55.24Z"/><path class="cls-2" d="M47.07,72.8a2.42,2.42,0,0,1-1.72-.72l-13.5-13.5a.94.94,0,0,1,1.32-1.33L46.68,70.76a.54.54,0,0,0,.75,0L88.61,18.06a.93.93,0,0,1,1.31-.17,1,1,0,0,1,.17,1.32L48.87,72a.6.6,0,0,1-.08.08A2.42,2.42,0,0,1,47.07,72.8Z"/><path class="cls-2" d="M15,31a41.67,41.67,0,0,1,53.4-12.65,17.37,17.37,0,0,1,1.75-1.19A43.54,43.54,0,0,0,13.6,29.76,2.94,2.94,0,0,1,15,31Z"/><path class="cls-2" d="M91.14,44.09a17.45,17.45,0,0,1-1.58,1.39,41.75,41.75,0,1,1-77.36-10,2.94,2.94,0,0,1-1.72-.75A43.62,43.62,0,1,0,92.59,55.24,43.2,43.2,0,0,0,91.14,44.09Z"/><path class="cls-2" d="M11.35,32.53a1.2,1.2,0,0,0,.11.47c.32-.54.66-1.06,1-1.59A1.13,1.13,0,0,0,11.35,32.53Z"/><path class="cls-2" d="M12.48,33.66a1.13,1.13,0,0,0,0-2.25h0c-.34.53-.68,1.05-1,1.59A1.13,1.13,0,0,0,12.48,33.66Z"/></g></g></svg>