<svg xmlns="http://www.w3.org/2000/svg" viewBox="0 0 102.05 102.05"><defs><style>.cls-1{fill:#15b8d7;}.cls-2{fill:none;}</style></defs><g id="Capa_2" data-name="Capa 2"><g id="Capa_1-2" data-name="Capa 1"><path class="cls-1" d="M13,59.83H3.85a2.69,2.69,0,0,1-2.69-2.68v-14a2.7,2.7,0,0,1,2.69-2.69H13m0,2H3.85a.69.69,0,0,0-.69.69v14a.68.68,0,0,0,.69.68H13"/><path class="cls-1" d="M30.45,57a1,1,0,0,1-.89-.54A1,1,0,0,1,30,55.07l9.65-4.94L30,45a1,1,0,0,1,.94-1.77l11.36,6.07a1,1,0,0,1,.53.89,1,1,0,0,1-.55.88L30.91,56.85A1,1,0,0,1,30.45,57Z"/><path class="cls-1" d="M87,40.6h9.77a2.69,2.69,0,0,1,2.68,2.69v14A2.69,2.69,0,0,1,96.81,60H87m0-2h9.77a.69.69,0,0,0,.68-.69v-14a.69.69,0,0,0-.68-.69H87"/><path class="cls-1" d="M70.46,57.35a1,1,0,0,1-.47-.11L58.63,51.17a1,1,0,0,1,0-1.78L70,43.59a1,1,0,0,1,1.34.43,1,1,0,0,1-.43,1.35L61.26,50.3l9.67,5.17a1,1,0,0,1-.47,1.88Z"/><path class="cls-1" d="M50.46,59.8a9.65,9.65,0,1,1,9.65-9.65A9.66,9.66,0,0,1,50.46,59.8Zm0-17.3a7.65,7.65,0,1,0,7.65,7.65A7.66,7.66,0,0,0,50.46,42.5Z"/><path class="cls-1" d="M74.18,25.79a1.18,1.18,0,0,0-1.07.68l1.1-.67Z"/><path class="cls-1" d="M74.18,28.19a1.2,1.2,0,0,0,1.07-.68l-1.11.67Z"/><path class="cls-1" d="M74.21,25.8l-1.1.67A1.14,1.14,0,0,0,73,27a1.19,1.19,0,0,0,1.16,1.19l1.11-.67a1.29,1.29,0,0,0,.13-.52A1.2,1.2,0,0,0,74.21,25.8Z"/><path class="cls-2" d="M42.24,49.83a8.21,8.21,0,0,1,6.46-8L21.55,24.42a.6.6,0,0,0-.27-.07.72.72,0,0,0-.6.35A49.35,49.35,0,0,0,20.73,75a.68.68,0,0,0,.92.27L48.77,58.68A.73.73,0,0,0,49.2,58v-.11A8.2,8.2,0,0,1,42.24,49.83Z"/><path class="cls-1" d="M49.46,58l-.26,0V58a.73.73,0,0,1-.43.64L21.65,75.22a.68.68,0,0,1-.92-.27,49.35,49.35,0,0,1-.05-50.25.72.72,0,0,1,.6-.35.6.6,0,0,1,.27.07L48.7,41.81a8.13,8.13,0,0,1,.86-.15,2.57,2.57,0,0,1,.71-1.18,2.78,2.78,0,0,0-.4-.3L22.57,22.7a2.66,2.66,0,0,0-3.6,1c-3.59,6-14.2,27.68,0,52.28a2.67,2.67,0,0,0,2.32,1.34A2.71,2.71,0,0,0,22.63,77L49.75,60.43a3,3,0,0,0,.64-.47A2.67,2.67,0,0,1,49.46,58Z"/><path class="cls-1" d="M51,41.64a7.9,7.9,0,0,1,.85.11L72.11,29.42a3.24,3.24,0,0,1-1-1.7L50.9,40a2.72,2.72,0,0,0-.63.47A2.64,2.64,0,0,1,51,41.64Z"/><path class="cls-1" d="M81.66,24.49a2.69,2.69,0,0,0-3.64-1l-1.78,1.08a3.17,3.17,0,0,1,1,1.71L79,25.22a.58.58,0,0,1,.31-.08.72.72,0,0,1,.61.35,49.34,49.34,0,0,1,0,50.25.67.67,0,0,1-.87.28L51.81,58.54a.66.66,0,0,1-.34-.57l-.27,0v0A2.72,2.72,0,0,1,50.39,60a2,2,0,0,0,.4.3L78.08,77.74a2.72,2.72,0,0,0,1.31.34,2.67,2.67,0,0,0,2.3-1.32C85.28,70.72,95.89,49.09,81.66,24.49Z"/><path class="cls-1" d="M51.2,58c-.25,0-.49,0-.74,0a8.26,8.26,0,0,1-1-.07,2.67,2.67,0,0,0,.93,2A2.72,2.72,0,0,0,51.2,58Z"/><path class="cls-1" d="M50.46,41.61l.58,0a2.64,2.64,0,0,0-.77-1.16,2.57,2.57,0,0,0-.71,1.18A8.72,8.72,0,0,1,50.46,41.61Z"/><rect class="cls-2" width="102.05" height="102.05"/></g></g></svg>