<svg xmlns="http://www.w3.org/2000/svg" viewBox="0 0 102.05 102.05"><defs><style>.cls-1{fill:#15b8d7;}.cls-2{fill:none;}</style></defs><g id="Capa_2" data-name="Capa 2"><g id="Capa_1-2" data-name="Capa 1"><path class="cls-1" d="M93.73,82.62H8.66a.88.88,0,0,1,0-1.76H93.73a.88.88,0,0,1,0,1.76Z"/><path class="cls-1" d="M92.48,79.37H9.91a2.14,2.14,0,0,1-2.13-2.13V57.09A2.14,2.14,0,0,1,9.91,55H92.48a2.13,2.13,0,0,1,2.13,2.13V77.24A2.13,2.13,0,0,1,92.48,79.37ZM9.91,56.73a.36.36,0,0,0-.36.36V77.24a.37.37,0,0,0,.36.37H92.48a.38.38,0,0,0,.37-.37V57.09a.37.37,0,0,0-.37-.36Z"/><path class="cls-1" d="M19,65A9,9,0,0,1,10,56a.88.88,0,0,1,.88-.88H27a.87.87,0,0,1,.88.88A8.94,8.94,0,0,1,19,65Zm-7.12-8.06a7.17,7.17,0,0,0,14.24,0Z"/><path class="cls-1" d="M35.09,65A9,9,0,0,1,26.15,56a.88.88,0,0,1,.88-.88H43.14A.87.87,0,0,1,44,56,8.94,8.94,0,0,1,35.09,65ZM28,56.91a7.17,7.17,0,0,0,14.24,0Z"/><path class="cls-1" d="M51.2,65A9,9,0,0,1,42.26,56a.88.88,0,0,1,.88-.88H59.25a.87.87,0,0,1,.88.88A9,9,0,0,1,51.2,65Zm-7.12-8.06a7.17,7.17,0,0,0,14.24,0Z"/><path class="cls-1" d="M67.31,65A9,9,0,0,1,58.37,56a.87.87,0,0,1,.88-.88H75.36a.87.87,0,0,1,.88.88A9,9,0,0,1,67.31,65Zm-7.12-8.06a7.17,7.17,0,0,0,14.24,0Z"/><path class="cls-1" d="M83.41,65A9,9,0,0,1,74.48,56a.87.87,0,0,1,.88-.88H91.47a.87.87,0,0,1,.88.88A9,9,0,0,1,83.41,65ZM76.3,56.91a7.17,7.17,0,0,0,14.23,0Z"/><path class="cls-1" d="M28.74,39.7a6.5,6.5,0,0,1-6.49-6.5.89.89,0,0,1,.88-.88H34.36a.89.89,0,0,1,.88.88A6.51,6.51,0,0,1,28.74,39.7ZM24.1,34.08a4.73,4.73,0,0,0,9.29,0Z"/><path class="cls-1" d="M40,39.7a6.5,6.5,0,0,1-6.49-6.5.88.88,0,0,1,.88-.88H45.58a.88.88,0,0,1,.88.88A6.5,6.5,0,0,1,40,39.7Zm-4.65-5.62a4.73,4.73,0,0,0,9.3,0Z"/><path class="cls-1" d="M51.2,39.7a6.51,6.51,0,0,1-6.5-6.5.89.89,0,0,1,.88-.88H56.81a.88.88,0,0,1,.88.88A6.5,6.5,0,0,1,51.2,39.7Zm-4.65-5.62a4.73,4.73,0,0,0,9.3,0Z"/><path class="cls-1" d="M62.42,39.7a6.5,6.5,0,0,1-6.49-6.5.88.88,0,0,1,.88-.88H68a.89.89,0,0,1,.88.88A6.51,6.51,0,0,1,62.42,39.7Zm-4.65-5.62a4.73,4.73,0,0,0,9.3,0Z"/><path class="cls-1" d="M73.65,39.7a6.5,6.5,0,0,1-6.49-6.5.88.88,0,0,1,.88-.88H79.26a.88.88,0,0,1,.88.88A6.5,6.5,0,0,1,73.65,39.7ZM69,34.08a4.73,4.73,0,0,0,9.3,0Z"/><path class="cls-1" d="M66.88,9.08s0-.06,0-.09,0-.21,0-.32A8.49,8.49,0,0,0,51.76,3.35l0,0a9.62,9.62,0,0,0-1,1.51,8.66,8.66,0,0,0-.94-1.49l-.07-.08a8.48,8.48,0,0,0-13.39.24,2.79,2.79,0,0,1,1.43,1,6.72,6.72,0,0,1,10.62-.12h0a6.66,6.66,0,0,1,1.47,4.16v.51a.89.89,0,0,0,.88.88h0a.87.87,0,0,0,.88-.88V8.63a6.65,6.65,0,0,1,1.46-4.16h0a6.73,6.73,0,0,1,12,4.2c0,.09,0,.19,0,.29v.11a.7.7,0,0,0,0,.29c0,1.45-.32,11.24-14.42,17.07C36.62,20.6,36.35,10.81,36.4,9.37a1.36,1.36,0,0,0,0-.29V8.9a2.75,2.75,0,0,1-.9.16,2.79,2.79,0,0,1-.87-.15s0,.05,0,.08a.22.22,0,0,0,0,.08c0,.51-.77,12.48,15.73,19.13a1,1,0,0,0,.33.07A.93.93,0,0,0,51,28.2C67.54,21.55,66.91,9.58,66.88,9.08Z"/><path class="cls-1" d="M34.46,6.25a1.07,1.07,0,0,0,.35.77,8.39,8.39,0,0,1,.57-1.8A1,1,0,0,0,34.46,6.25Z"/><path class="cls-1" d="M35.52,7.3a1.06,1.06,0,0,0,0-2.11.7.7,0,0,0-.14,0A8.39,8.39,0,0,0,34.81,7,1.05,1.05,0,0,0,35.52,7.3Z"/><path class="cls-1" d="M80.19,43.62v11a.36.36,0,0,1-.37.36H22.57a.37.37,0,0,1-.37-.36V34.45a.38.38,0,0,1,.37-.37H79.82a.37.37,0,0,1,.37.37V38.3a2.5,2.5,0,0,1,1.76,0V34.45a2.13,2.13,0,0,0-2.13-2.13H22.57a2.14,2.14,0,0,0-2.13,2.13V54.6a2.14,2.14,0,0,0,2.13,2.13H79.82A2.13,2.13,0,0,0,82,54.6v-11a2.5,2.5,0,0,1-1.76,0Z"/><path class="cls-1" d="M80.19,41.51v-1.1A1.08,1.08,0,0,0,80,41,1,1,0,0,0,80.19,41.51Z"/><path class="cls-1" d="M82.13,41a1.09,1.09,0,0,0-.18-.55v1.1A1,1,0,0,0,82.13,41Z"/><path class="cls-1" d="M81.07,42a1,1,0,0,0,.88-.51v-1.1a1,1,0,0,0-.88-.5,1.05,1.05,0,0,0-.88.5v1.1A1,1,0,0,0,81.07,42Z"/><rect class="cls-2" width="102.05" height="102.05"/><path class="cls-1" d="M93.44,82.15H8.61a.43.43,0,0,1-.44-.44.44.44,0,0,1,.44-.44H93.44a.44.44,0,0,1,.44.44A.44.44,0,0,1,93.44,82.15Z"/></g></g></svg>